<svg xmlns="http://www.w3.org/2000/svg" fill="none" viewBox="0 0 64 67">
  <path fill="#63415F" d="M63.9998 33.9065V4.35406c.0034-.1709-.0282-.34068-.0928-.49884-.0646-.15817-.1609-.30137-.2829-.42073-.122-.11936-.2671-.21235-.4264-.27323-.1592-.06087-.3293-.08833-.4995-.08067h-9.5237c-.1715-.00422-.3417.03003-.4982.10027-.1566.07023-.2955.17466-.4066.30565-.2264.23268-.3568.54255-.3651.86755V28.0883c-.0417.5669-.2837 1.1003-.6825 1.5043-.1817.189-.4001.3388-.6417.4401-.2416.1012-.5012.1519-.763.1489h-9.6428c-.4776.014-.9318.2105-1.2697.5493-.3378.3389-.5338.7944-.5477 1.2733v6.638c.0139.479.2099.9345.5477 1.2733.3379.3388.7921.5353 1.2697.5493h11.6983c-1.4341 3.9903-3.9859 7.4807-7.3491 10.0525-3.3396 2.5207-7.424 3.8487-11.6031 3.7726-3.7299.022-7.3964-.9681-10.611-2.8653-3.2204-1.8645-5.8947-4.5464-7.7539-7.7761-1.8713-3.231-2.857-6.901-2.857-10.6374 0-3.7365.9857-7.4065 2.857-10.6375 1.8592-3.2296 4.5335-5.9115 7.7539-7.7761 3.2146-1.8972 6.8811-2.8872 10.611-2.8653l2.3809.0876c.4311.04.8605-.0922 1.1948-.368.3344-.2757.5468-.6726.5909-1.1045l1.4524-7.91936c.0578-.24459.0627-.49876.0144-.74541-.0484-.24664-.1489-.48003-.2948-.68442-.1459-.204395-.3338-.375055-.551-.500481C37.491.372203 37.2495.294924 37 .271c-1.352-.1830763-2.715-.27348999-4.0793-.27061247C28.5917-.0206981 24.3014.818857 20.2978 2.47053c-4.0036 1.65168-7.641 4.08271-10.70215 7.15262C6.53452 12.693 4.11042 16.3409 2.46347 20.356.816517 24.371-.0206389 28.6736.00038643 33.015-.0264352 38.8052 1.473 44.4996 4.34682 49.5215c2.87382 5.0219 7.01998 9.193 12.01848 12.0909 5.0187 2.9499 10.7383 4.487 16.5554 4.4491 5.6421.0798 11.1907-1.4493 15.9998-4.4093 4.7134-2.8971 8.5538-7.0236 11.111-11.9388 2.5085-4.7821 3.8674-10.0861 3.9683-15.4886v-.3183Z"/>
</svg>
